<svg id="Capa_1" enable-background="new 0 0 512 512" height="512" viewBox="0 0 512 512" width="512" xmlns="http://www.w3.org/2000/svg"><g><g><path d="m60 496h-45c-8.284 0-15-6.716-15-15v-450c0-8.284 6.716-15 15-15h150c6.064 0 11.543 3.647 13.857 9.258s1.025 12.056-3.252 16.348l-85.605 85.605v338.789c0 16.569-13.431 30-30 30z" fill="#8cd96b"/></g><g><path d="m375 16h-210l-30 75-75 30v375h315c8.284 0 15-6.716 15-15v-450c0-8.284-6.716-15-15-15z" fill="#f3f5f9"/></g><path d="m375 16h-150v480h150c8.284 0 15-6.716 15-15v-450c0-8.284-6.716-15-15-15z" fill="#e1e6f0"/><path d="m512 151v296.4c0 2.401-.601 4.799-1.5 6.899l-15 30c-5.7 10.8-21.301 10.8-27.001 0l-15-30c-.899-2.1-1.5-4.499-1.5-6.899v-296.4l30-30z" fill="#396973"/><path d="m495.5 484.3 15-30c.899-2.1 1.5-4.499 1.5-6.899v-296.401l-30-30v371.398c5.325 0 10.651-2.699 13.5-8.098z" fill="#2d4a59"/><path d="m512 91v60h-60v-60c0-8.401 6.599-15 15-15h30c8.401 0 15 6.599 15 15z" fill="#ffdf40"/><g id="Document_2_"><g><g><path d="m165 16v90c0 8.284-6.716 15-15 15h-90c0-3.9 1.5-7.8 4.501-10.499l90-90c2.699-3.001 6.599-4.501 10.499-4.501z" fill="#cfd7e6"/></g><g><g><path d="m315 256h-180c-8.291 0-15-6.709-15-15s6.709-15 15-15h180c8.291 0 15 6.709 15 15s-6.709 15-15 15z" fill="#cfd7e6"/></g></g><g><g><path d="m315 316h-180c-8.291 0-15-6.709-15-15s6.709-15 15-15h180c8.291 0 15 6.709 15 15s-6.709 15-15 15z" fill="#cfd7e6"/></g></g><g><g><path d="m315 376h-180c-8.291 0-15-6.709-15-15s6.709-15 15-15h180c8.291 0 15 6.709 15 15s-6.709 15-15 15z" fill="#cfd7e6"/></g></g></g></g><path d="m497 76h-15v75h30v-60c0-8.401-6.599-15-15-15z" fill="#ffbe40"/><g fill="#b8c4d9"><path d="m315 226h-90v30h90c8.291 0 15-6.709 15-15s-6.709-15-15-15z"/><path d="m315 286h-90v30h90c8.291 0 15-6.709 15-15s-6.709-15-15-15z"/><path d="m315 346h-90v30h90c8.291 0 15-6.709 15-15s-6.709-15-15-15z"/></g></g></svg>